<svg width="25" height="24" viewBox="0 0 25 24" fill="none" xmlns="http://www.w3.org/2000/svg">
<path d="M10.8334 19.9V4.1C10.8334 2.6 10.1934 2 8.60337 2H4.56337C2.97337 2 2.33337 2.6 2.33337 4.1V19.9C2.33337 21.4 2.97337 22 4.56337 22H8.60337C10.1934 22 10.8334 21.4 10.8334 19.9Z" stroke="#344054" stroke-width="1.5" stroke-linecap="round" stroke-linejoin="round"/>
<path d="M22.3334 10.9V4.1C22.3334 2.6 21.6934 2 20.1034 2H16.0634C14.4734 2 13.8334 2.6 13.8334 4.1V10.9C13.8334 12.4 14.4734 13 16.0634 13H20.1034C21.6934 13 22.3334 12.4 22.3334 10.9Z" stroke="#344054" stroke-width="1.5" stroke-linecap="round" stroke-linejoin="round"/>
<path d="M22.3334 19.9V18.1C22.3334 16.6 21.6934 16 20.1034 16H16.0634C14.4734 16 13.8334 16.6 13.8334 18.1V19.9C13.8334 21.4 14.4734 22 16.0634 22H20.1034C21.6934 22 22.3334 21.4 22.3334 19.9Z" stroke="#344054" stroke-width="1.5" stroke-linecap="round" stroke-linejoin="round"/>
</svg>
