<svg width="26" height="27" viewBox="0 0 26 27" fill="none" xmlns="http://www.w3.org/2000/svg">
<mask id="mask0_26_1312" style="mask-type:alpha" maskUnits="userSpaceOnUse" x="0" y="0" width="26" height="27">
<rect y="0.295898" width="25.8345" height="25.8345" fill="#D9D9D9"/>
</mask>
<g mask="url(#mask0_26_1312)">
<path d="M7.53481 23.977C6.94276 23.977 6.43594 23.7662 6.01434 23.3446C5.59273 22.923 5.38193 22.4162 5.38193 21.8241C5.38193 21.2321 5.59273 20.7253 6.01434 20.3037C6.43594 19.8821 6.94276 19.6713 7.53481 19.6713C8.12685 19.6713 8.63367 19.8821 9.05527 20.3037C9.47688 20.7253 9.68768 21.2321 9.68768 21.8241C9.68768 22.4162 9.47688 22.923 9.05527 23.3446C8.63367 23.7662 8.12685 23.977 7.53481 23.977ZM18.2992 23.977C17.7072 23.977 17.2003 23.7662 16.7787 23.3446C16.3571 22.923 16.1463 22.4162 16.1463 21.8241C16.1463 21.2321 16.3571 20.7253 16.7787 20.3037C17.2003 19.8821 17.7072 19.6713 18.2992 19.6713C18.8912 19.6713 19.3981 19.8821 19.8197 20.3037C20.2413 20.7253 20.4521 21.2321 20.4521 21.8241C20.4521 22.4162 20.2413 22.923 19.8197 23.3446C19.3981 23.7662 18.8912 23.977 18.2992 23.977ZM6.61983 6.754L9.20329 12.1362H16.7384L19.6986 6.754H6.61983ZM5.59722 4.60112H21.4747C21.8873 4.60112 22.2013 4.78501 22.4166 5.15279C22.6319 5.52058 22.6408 5.89285 22.4435 6.2696L18.6221 13.1588C18.4248 13.5176 18.1602 13.7957 17.8283 13.993C17.4964 14.1904 17.1331 14.2891 16.7384 14.2891H8.71889L7.53481 16.4419H20.4521V18.5948H7.53481C6.72748 18.5948 6.11749 18.2405 5.70486 17.5318C5.29222 16.8232 5.27428 16.119 5.65104 15.4193L7.10423 12.7821L3.22905 4.60112H1.07617V2.44824H4.5746L5.59722 4.60112Z" fill="black" fill-opacity="0.6"/>
</g>
</svg>
