<svg width="52" height="51" viewBox="0 0 52 51" fill="none" xmlns="http://www.w3.org/2000/svg">
<g filter="url(#filter0_di_2_1447)">
<rect x="6" width="39.9374" height="39.9374" rx="19.9687" fill="#F2F6F7"/>
<mask id="mask0_2_1447" style="mask-type:alpha" maskUnits="userSpaceOnUse" x="14" y="8" width="25" height="25">
<rect x="14.5771" y="8.57727" width="23.959" height="23.959" fill="#D9D9D9"/>
</mask>
<g mask="url(#mask0_2_1447)">
<path d="M25.0594 23.5516H28.0543L27.4803 20.3321C27.8131 20.1658 28.0751 19.9245 28.2665 19.6084C28.4578 19.2923 28.5535 18.9429 28.5535 18.5602C28.5535 18.0111 28.358 17.5411 27.967 17.1501C27.576 16.7591 27.1059 16.5636 26.5569 16.5636C26.0078 16.5636 25.5378 16.7591 25.1468 17.1501C24.7558 17.5411 24.5603 18.0111 24.5603 18.5602C24.5603 18.9429 24.656 19.2923 24.8473 19.6084C25.0386 19.9245 25.3007 20.1658 25.6335 20.3321L25.0594 23.5516ZM26.5569 30.5397C24.2442 29.9573 22.3349 28.6304 20.8292 26.559C19.3234 24.4875 18.5706 22.1873 18.5706 19.6583V13.5687L26.5569 10.5739L34.5432 13.5687V19.6583C34.5432 22.1873 33.7903 24.4875 32.2846 26.559C30.7788 28.6304 28.8696 29.9573 26.5569 30.5397ZM26.5569 28.4432C28.2872 27.8942 29.7181 26.7961 30.8495 25.1489C31.9809 23.5017 32.5466 21.6715 32.5466 19.6583V14.9414L26.5569 12.6952L20.5671 14.9414V19.6583C20.5671 21.6715 21.1328 23.5017 22.2642 25.1489C23.3956 26.7961 24.8265 27.8942 26.5569 28.4432Z" fill="#0B4650"/>
</g>
</g>
<defs>
<filter id="filter0_di_2_1447" x="0.911029" y="0" width="50.1152" height="50.1153" filterUnits="userSpaceOnUse" color-interpolation-filters="sRGB">
<feFlood flood-opacity="0" result="BackgroundImageFix"/>
<feColorMatrix in="SourceAlpha" type="matrix" values="0 0 0 0 0 0 0 0 0 0 0 0 0 0 0 0 0 0 127 0" result="hardAlpha"/>
<feOffset dy="5.08897"/>
<feGaussianBlur stdDeviation="2.54449"/>
<feComposite in2="hardAlpha" operator="out"/>
<feColorMatrix type="matrix" values="0 0 0 0 0 0 0 0 0 0 0 0 0 0 0 0 0 0 0.16 0"/>
<feBlend mode="normal" in2="BackgroundImageFix" result="effect1_dropShadow_2_1447"/>
<feBlend mode="normal" in="SourceGraphic" in2="effect1_dropShadow_2_1447" result="shape"/>
<feColorMatrix in="SourceAlpha" type="matrix" values="0 0 0 0 0 0 0 0 0 0 0 0 0 0 0 0 0 0 127 0" result="hardAlpha"/>
<feOffset dy="2.54449"/>
<feGaussianBlur stdDeviation="3.81673"/>
<feComposite in2="hardAlpha" operator="arithmetic" k2="-1" k3="1"/>
<feColorMatrix type="matrix" values="0 0 0 0 0 0 0 0 0 0 0 0 0 0 0 0 0 0 0.04 0"/>
<feBlend mode="normal" in2="shape" result="effect2_innerShadow_2_1447"/>
</filter>
</defs>
</svg>
