<svg width="86" height="22" viewBox="0 0 86 22" fill="none" xmlns="http://www.w3.org/2000/svg">
<path d="M0.051 21V0.489999H5.8524V16.3999H15.6386V21H0.051ZM27.6695 21.4102C26.0287 21.4102 24.5148 21.1465 23.128 20.6191C21.7411 20.0917 20.53 19.3494 19.4948 18.3923C18.479 17.4156 17.6879 16.2827 17.1215 14.9935C16.555 13.7043 16.2718 12.2881 16.2718 10.745C16.2718 9.20187 16.555 7.7857 17.1215 6.4965C17.6879 5.2073 18.479 4.08413 19.4948 3.127C20.53 2.15033 21.7411 1.3983 23.128 0.870899C24.5148 0.343499 26.0287 0.0797992 27.6695 0.0797992C29.3298 0.0797992 30.8436 0.343499 32.211 0.870899C33.5978 1.3983 34.7991 2.15033 35.8149 3.127C36.8306 4.08413 37.6217 5.2073 38.1882 6.4965C38.7742 7.7857 39.0672 9.20187 39.0672 10.745C39.0672 12.2881 38.7742 13.7141 38.1882 15.0228C37.6217 16.312 36.8306 17.4352 35.8149 18.3923C34.7991 19.3494 33.5978 20.0917 32.211 20.6191C30.8436 21.1465 29.3298 21.4102 27.6695 21.4102ZM27.6695 16.605C28.4508 16.605 29.1735 16.4683 29.8377 16.1948C30.5213 15.9213 31.1073 15.5307 31.5957 15.0228C32.1035 14.4954 32.4942 13.8703 32.7677 13.1476C33.0607 12.4249 33.2072 11.624 33.2072 10.745C33.2072 9.84647 33.0607 9.0456 32.7677 8.3424C32.4942 7.61967 32.1035 7.00437 31.5957 6.4965C31.1073 5.9691 30.5213 5.56867 29.8377 5.2952C29.1735 5.02173 28.4508 4.885 27.6695 4.885C26.8881 4.885 26.1556 5.02173 25.472 5.2952C24.8078 5.56867 24.2218 5.9691 23.714 6.4965C23.2256 7.00437 22.835 7.61967 22.542 8.3424C22.2685 9.0456 22.1318 9.84647 22.1318 10.745C22.1318 11.624 22.2685 12.4249 22.542 13.1476C22.835 13.8703 23.2256 14.4954 23.714 15.0228C24.2218 15.5307 24.8078 15.9213 25.472 16.1948C26.1556 16.4683 26.8881 16.605 27.6695 16.605ZM52.0677 21.4102C50.4464 21.4102 48.9423 21.1563 47.5555 20.6484C46.1686 20.121 44.9673 19.3787 43.9516 18.4216C42.9554 17.4645 42.174 16.3413 41.6076 15.0521C41.0411 13.7434 40.7579 12.3077 40.7579 10.745C40.7579 9.18233 41.0411 7.7564 41.6076 6.4672C42.174 5.15847 42.9651 4.02553 43.9809 3.0684C44.9966 2.11127 46.1979 1.37877 47.5848 0.870899C48.9912 0.343499 50.5245 0.0797992 52.1849 0.0797992C54.1187 0.0797992 55.8474 0.402099 57.371 1.0467C58.8946 1.6913 60.1545 2.61913 61.1507 3.8302L57.4589 7.1704C56.7557 6.4086 55.9939 5.84213 55.1735 5.471C54.3726 5.08033 53.4741 4.885 52.4779 4.885C51.5989 4.885 50.798 5.02173 50.0753 5.2952C49.3525 5.56867 48.7372 5.9691 48.2294 6.4965C47.7215 7.00437 47.3211 7.61967 47.0281 8.3424C46.7546 9.0456 46.6179 9.84647 46.6179 10.745C46.6179 11.6045 46.7546 12.3956 47.0281 13.1183C47.3211 13.841 47.7215 14.4661 48.2294 14.9935C48.7372 15.5014 49.3428 15.9018 50.046 16.1948C50.7687 16.4683 51.5598 16.605 52.4193 16.605C53.2787 16.605 54.1187 16.4683 54.9391 16.1948C55.7595 15.9018 56.5896 15.4135 57.4296 14.7298L60.6819 18.8025C59.5099 19.6424 58.1523 20.287 56.6092 20.7363C55.066 21.1856 53.5522 21.4102 52.0677 21.4102ZM55.5544 18.0407V10.3055H60.6819V18.8025L55.5544 18.0407ZM74.4098 21.4102C72.769 21.4102 71.2552 21.1465 69.8683 20.6191C68.4814 20.0917 67.2704 19.3494 66.2351 18.3923C65.2194 17.4156 64.4283 16.2827 63.8618 14.9935C63.2953 13.7043 63.0121 12.2881 63.0121 10.745C63.0121 9.20187 63.2953 7.7857 63.8618 6.4965C64.4283 5.2073 65.2194 4.08413 66.2351 3.127C67.2704 2.15033 68.4814 1.3983 69.8683 0.870899C71.2552 0.343499 72.769 0.0797992 74.4098 0.0797992C76.0701 0.0797992 77.584 0.343499 78.9513 0.870899C80.3382 1.3983 81.5395 2.15033 82.5552 3.127C83.5709 4.08413 84.362 5.2073 84.9285 6.4965C85.5145 7.7857 85.8075 9.20187 85.8075 10.745C85.8075 12.2881 85.5145 13.7141 84.9285 15.0228C84.362 16.312 83.5709 17.4352 82.5552 18.3923C81.5395 19.3494 80.3382 20.0917 78.9513 20.6191C77.584 21.1465 76.0701 21.4102 74.4098 21.4102ZM74.4098 16.605C75.1911 16.605 75.9139 16.4683 76.578 16.1948C77.2617 15.9213 77.8477 15.5307 78.336 15.0228C78.8439 14.4954 79.2345 13.8703 79.508 13.1476C79.801 12.4249 79.9475 11.624 79.9475 10.745C79.9475 9.84647 79.801 9.0456 79.508 8.3424C79.2345 7.61967 78.8439 7.00437 78.336 6.4965C77.8477 5.9691 77.2617 5.56867 76.578 5.2952C75.9139 5.02173 75.1911 4.885 74.4098 4.885C73.6285 4.885 72.896 5.02173 72.2123 5.2952C71.5482 5.56867 70.9622 5.9691 70.4543 6.4965C69.966 7.00437 69.5753 7.61967 69.2823 8.3424C69.0088 9.0456 68.8721 9.84647 68.8721 10.745C68.8721 11.624 69.0088 12.4249 69.2823 13.1476C69.5753 13.8703 69.966 14.4954 70.4543 15.0228C70.9622 15.5307 71.5482 15.9213 72.2123 16.1948C72.896 16.4683 73.6285 16.605 74.4098 16.605Z" fill="black"/>
</svg>
