<svg width="26" height="26" viewBox="0 0 26 26" fill="none" xmlns="http://www.w3.org/2000/svg">
<path fill-rule="evenodd" clip-rule="evenodd" d="M7.53516 9.68777C7.53516 9.09327 8.01709 8.61133 8.6116 8.61133H17.2231C17.8176 8.61133 18.2995 9.09327 18.2995 9.68777C18.2995 10.2823 17.8176 10.7642 17.2231 10.7642H8.6116C8.01709 10.7642 7.53516 10.2823 7.53516 9.68777Z" fill="black" fill-opacity="0.6"/>
<path fill-rule="evenodd" clip-rule="evenodd" d="M7.53516 13.9934C7.53516 13.3989 8.01709 12.917 8.6116 12.917H12.9174C13.5119 12.917 13.9938 13.3989 13.9938 13.9934C13.9938 14.5879 13.5119 15.0699 12.9174 15.0699H8.6116C8.01709 15.0699 7.53516 14.5879 7.53516 13.9934Z" fill="black" fill-opacity="0.6"/>
<path fill-rule="evenodd" clip-rule="evenodd" d="M7.23323 18.7983C7.62013 18.4758 8.10783 18.2993 8.61146 18.2993H20.4523C21.0468 18.2993 21.5287 17.8173 21.5287 17.2228V6.45844C21.5287 5.86394 21.0468 5.382 20.4523 5.382H5.38215C4.78765 5.382 4.30571 5.86394 4.30571 6.45844V21.2379L7.23323 18.7983ZM8.61146 20.4521H20.4523C22.2358 20.4521 23.6816 19.0063 23.6816 17.2228V6.45844C23.6816 4.67494 22.2358 3.22913 20.4523 3.22913H5.38215C3.59865 3.22913 2.15283 4.67494 2.15283 6.45844V21.2379C2.15283 23.0632 4.28172 24.0603 5.68395 22.8917L8.61146 20.4521Z" fill="black" fill-opacity="0.6"/>
</svg>
