<svg width="27" height="26" viewBox="0 0 27 26" fill="none" xmlns="http://www.w3.org/2000/svg">
<path fill-rule="evenodd" clip-rule="evenodd" d="M2.98779 17.8643C2.9878 17.4543 3.15432 17.0619 3.44919 16.7771L4.5568 15.7073C4.97843 15.3001 5.21578 14.7386 5.21402 14.1524L5.20383 10.7583C5.18958 6.00973 9.0351 2.15264 13.7837 2.15264C18.5223 2.15264 22.3637 5.99401 22.3637 10.7326L22.3637 14.1782C22.3637 14.7491 22.5905 15.2967 22.9942 15.7005L24.0707 16.7769C24.3562 17.0624 24.5166 17.4496 24.5166 17.8534C24.5166 18.6941 23.835 19.3757 22.9943 19.3757H18.0579C18.0579 21.7537 16.1302 23.6814 13.7522 23.6814C11.3742 23.6814 9.44643 21.7537 9.44643 19.3757H4.4992C3.66447 19.3757 2.98779 18.699 2.98779 17.8643ZM11.5993 19.3757C11.5993 20.5647 12.5632 21.5285 13.7522 21.5285C14.9412 21.5285 15.9051 20.5647 15.9051 19.3757H11.5993ZM20.2108 14.1782C20.2108 15.3201 20.6644 16.4153 21.4719 17.2228L6.08633 17.2228C6.90842 16.4111 7.37036 15.3025 7.36689 14.1459L7.3567 10.7519C7.34602 7.19479 10.2266 4.30552 13.7837 4.30552C17.3333 4.30552 20.2108 7.18302 20.2108 10.7326L20.2108 14.1782Z" fill="black" fill-opacity="0.6"/>
</svg>
