<svg width="36" height="38" viewBox="0 0 36 38" fill="none" xmlns="http://www.w3.org/2000/svg">
<g filter="url(#filter0_d_26_1303)">
<path fill-rule="evenodd" clip-rule="evenodd" d="M27.3191 15.4688C27.3191 20.9053 22.9119 25.3125 17.4753 25.3125C12.0388 25.3125 7.63159 20.9053 7.63159 15.4688C7.63159 10.0322 12.0388 5.625 17.4753 5.625C22.9119 5.625 27.3191 10.0322 27.3191 15.4688ZM27.3639 23.3686C29.0959 21.2035 30.1316 18.4571 30.1316 15.4688C30.1316 8.4789 24.4652 2.8125 17.4753 2.8125C10.4855 2.8125 4.81909 8.4789 4.81909 15.4688C4.81909 22.4586 10.4855 28.125 17.4753 28.125C20.4636 28.125 23.2101 27.0893 25.3752 25.3574L29.1372 29.1194C29.6864 29.6685 30.5768 29.6685 31.126 29.1194C31.6751 28.5702 31.6751 27.6798 31.126 27.1306L27.3639 23.3686Z" fill="black" fill-opacity="0.6"/>
</g>
<defs>
<filter id="filter0_d_26_1303" x="-1.99341" y="0" width="41.75" height="41.75" filterUnits="userSpaceOnUse" color-interpolation-filters="sRGB">
<feFlood flood-opacity="0" result="BackgroundImageFix"/>
<feColorMatrix in="SourceAlpha" type="matrix" values="0 0 0 0 0 0 0 0 0 0 0 0 0 0 0 0 0 0 127 0" result="hardAlpha"/>
<feOffset dy="4"/>
<feGaussianBlur stdDeviation="2"/>
<feComposite in2="hardAlpha" operator="out"/>
<feColorMatrix type="matrix" values="0 0 0 0 0 0 0 0 0 0 0 0 0 0 0 0 0 0 0.25 0"/>
<feBlend mode="normal" in2="BackgroundImageFix" result="effect1_dropShadow_26_1303"/>
<feBlend mode="normal" in="SourceGraphic" in2="effect1_dropShadow_26_1303" result="shape"/>
</filter>
</defs>
</svg>
