<svg width="28" height="37" viewBox="0 0 28 37" fill="none" xmlns="http://www.w3.org/2000/svg">
<path d="M22.1842 1.09912H5.23684C2.62358 1.09912 0.5 3.20577 0.5 5.81073V31.0804C0.5 33.6853 2.62358 35.792 5.23684 35.792H22.1842C24.7975 35.792 26.9211 33.6853 26.9211 31.0804V5.81073C26.9211 3.20577 24.7975 1.09912 22.1842 1.09912ZM8.91447 18.4456C8.91447 18.143 9.16202 17.8927 9.47368 17.8927H17.9474C18.259 17.8927 18.5066 18.143 18.5066 18.4456C18.5066 18.7481 18.259 18.9985 17.9474 18.9985H9.47368C9.16202 18.9985 8.91447 18.7481 8.91447 18.4456Z" stroke="black"/>
</svg>
