<svg width="23" height="23" viewBox="0 0 23 23" fill="none" xmlns="http://www.w3.org/2000/svg">
<path fill-rule="evenodd" clip-rule="evenodd" d="M22.54 11.7615V11.7615C22.54 10.3925 21.3352 9.40918 19.9662 9.40918H13.7242C12.4958 9.40918 11.5 10.405 11.5 11.6334V11.6334C11.5 12.8618 12.4958 13.8576 13.7242 13.8576H14.7281C16.2679 13.8576 17.4311 15.3405 16.3907 16.4756C16.3211 16.5517 16.249 16.6259 16.1746 16.6982C15.7244 17.1355 15.3943 17.7052 15.3943 18.3328V18.3328C15.3943 19.3718 16.2365 20.214 17.2754 20.214H18.0677C18.7385 20.214 19.3967 19.972 19.8399 19.4684C21.5634 17.5103 22.54 14.8515 22.54 11.7615Z" fill="#4285F4"/>
<path fill-rule="evenodd" clip-rule="evenodd" d="M11.5 23.0001C13.4507 23.0001 15.2035 22.5936 16.7088 21.8558C18.0813 21.1832 18.0118 19.3606 16.8045 18.4234C15.9626 17.7697 14.8044 17.7734 13.7873 18.0921C13.0973 18.3083 12.3319 18.4262 11.5 18.4262C9.07014 18.4262 6.94304 17.0949 5.74378 15.1411C5.24091 14.3219 4.41662 13.6851 3.45534 13.6851C2.22253 13.6851 1.22314 14.6844 1.22314 15.9173V16.0927C1.22314 16.4687 1.30739 16.8419 1.493 17.1689C3.46968 20.6516 7.20854 23.0001 11.5 23.0001Z" fill="#34A853"/>
<path fill-rule="evenodd" clip-rule="evenodd" d="M3.65097 14.7818C4.49824 14.1247 4.78882 13.004 4.71878 11.9341C4.70936 11.7903 4.70455 11.6455 4.70455 11.5C4.70455 10.8861 4.79029 10.2858 4.9451 9.71322C5.01701 9.44723 5.06523 9.17452 5.06523 8.89899V8.71133C5.06523 7.39917 4.00151 6.33545 2.68935 6.33545C1.79058 6.33545 0.948546 6.83617 0.650434 7.68406C0.230482 8.87848 0 10.1635 0 11.5C0 12.2761 0.0777178 13.0348 0.225123 13.7685C0.538509 15.3284 2.3937 15.7568 3.65097 14.7818Z" fill="#FBBC05"/>
<path fill-rule="evenodd" clip-rule="evenodd" d="M11.5 4.57386C12.3935 4.57386 13.2386 4.73635 14.0131 5.05823C15.1757 5.54147 16.6074 5.58232 17.4977 4.69203C18.425 3.76476 18.4072 2.22653 17.2812 1.55436C15.6285 0.567754 13.6879 0 11.5 0C7.645 0 4.23593 1.89503 2.14953 4.80499C1.54343 5.65034 1.81619 6.79537 2.63816 7.43282C3.82337 8.35195 5.60069 7.79061 6.63135 6.70099C7.86385 5.39799 9.58821 4.57386 11.5 4.57386Z" fill="#EA4335"/>
</svg>
