<svg width="24" height="24" viewBox="0 0 24 24" fill="none" xmlns="http://www.w3.org/2000/svg">
<mask id="mask0_2_1332" style="mask-type:alpha" maskUnits="userSpaceOnUse" x="0" y="0" width="24" height="24">
<rect width="24" height="24" fill="#D9D9D9"/>
</mask>
<g mask="url(#mask0_2_1332)">
<path d="M12 14.4574L13.4 13.0657L11.8 11.4753H16V9.48717H11.8L13.4 7.8967L12 6.50504L8 10.4812L12 14.4574ZM12 20.4217C10.6167 20.4217 9.31667 20.1607 8.1 19.6388C6.88333 19.117 5.825 18.4087 4.925 17.5141C4.025 16.6194 3.3125 15.5674 2.7875 14.358C2.2625 13.1486 2 11.8563 2 10.4812C2 9.10612 2.2625 7.81386 2.7875 6.60444C3.3125 5.39502 4.025 4.34299 4.925 3.44835C5.825 2.55371 6.88333 1.84545 8.1 1.32358C9.31667 0.801708 10.6167 0.540771 12 0.540771C13.3833 0.540771 14.6833 0.801708 15.9 1.32358C17.1167 1.84545 18.175 2.55371 19.075 3.44835C19.975 4.34299 20.6875 5.39502 21.2125 6.60444C21.7375 7.81386 22 9.10612 22 10.4812C22 11.8563 21.7375 13.1486 21.2125 14.358C20.6875 15.5674 19.975 16.6194 19.075 17.5141C18.175 18.4087 17.1167 19.117 15.9 19.6388C14.6833 20.1607 13.3833 20.4217 12 20.4217Z" fill="#1C1B1F"/>
</g>
</svg>
