<svg width="166" height="24" viewBox="0 0 166 24" fill="none" xmlns="http://www.w3.org/2000/svg">
<path d="M6.39801 20.9972V12.8012H9.16301L9.57401 9.59215H6.39801V7.54815C6.39801 6.62215 6.65601 5.98815 7.98501 5.98815H9.66901V3.12715C8.85001 3.03915 8.02601 2.99715 7.20201 3.00015C4.75801 3.00015 3.08001 4.49215 3.08001 7.23115V9.58615H0.333008V12.7951H3.08601V20.9972H6.39801Z" fill="#0A142F"/>
<path fill-rule="evenodd" clip-rule="evenodd" d="M44.501 3H35.501C33.0262 3 31.001 5.02432 31.001 7.5V16.5C31.001 18.9748 33.0262 21 35.501 21H44.501C46.9758 21 49.001 18.9748 49.001 16.5V7.5C49.001 5.02432 46.9758 3 44.501 3ZM40.001 15.7499C37.9296 15.7499 36.2509 14.0704 36.2509 12C36.2509 9.92865 37.9296 8.24993 40.001 8.24993C42.0714 8.24993 43.7511 9.92865 43.7511 12C43.7511 14.0704 42.0714 15.7499 40.001 15.7499ZM43.7511 7.12492C43.7511 7.74615 44.2542 8.24992 44.8761 8.24992C45.498 8.24992 46.0011 7.74615 46.0011 7.12492C46.0011 6.5037 45.498 5.99992 44.8761 5.99992C44.2542 5.99992 43.7511 6.5037 43.7511 7.12492Z" fill="#0A142F"/>
<path d="M85.176 3H87.9367L81.9067 10.201L89.001 20H83.4469L79.0965 14.0559L74.1184 20H71.3565L77.8061 12.2972L71.001 3H76.6969L80.6287 8.43179L85.176 3ZM84.2085 18.2742H85.7385L75.8644 4.63552H74.2241L84.2085 18.2742Z" fill="black"/>
<path d="M119.611 3H121.742C121.897 3.79003 122.323 4.78667 123.071 5.77559C123.803 6.74461 124.774 7.41972 126.069 7.41972V9.62959C124.182 9.62959 122.765 8.73017 121.764 7.60867V15.1542C121.764 16.2469 121.448 17.3151 120.857 18.2236C120.265 19.1321 119.425 19.8402 118.442 20.2584C117.458 20.6765 116.376 20.7859 115.332 20.5727C114.289 20.3596 113.33 19.8334 112.577 19.0608C111.825 18.2881 111.312 17.3037 111.104 16.232C110.897 15.1604 111.003 14.0495 111.411 13.04C111.818 12.0305 112.508 11.1677 113.393 10.5607C114.278 9.9536 115.318 9.62959 116.382 9.62959V11.8394C115.744 11.8394 115.119 12.0339 114.588 12.3981C114.058 12.7623 113.644 13.28 113.399 13.8857C113.155 14.4914 113.091 15.1579 113.216 15.8009C113.34 16.4439 113.648 17.0346 114.099 17.4982C114.551 17.9617 115.126 18.2774 115.752 18.4053C116.379 18.5332 117.028 18.4676 117.618 18.2167C118.208 17.9658 118.712 17.541 119.067 16.9958C119.422 16.4507 119.611 15.8098 119.611 15.1542V3Z" fill="black"/>
<path d="M149.322 19V8.09091H151.893V19H149.322ZM150.615 6.54261C150.207 6.54261 149.857 6.40767 149.563 6.13778C149.27 5.86316 149.123 5.53409 149.123 5.15057C149.123 4.76231 149.27 4.43324 149.563 4.16335C149.857 3.88873 150.207 3.75142 150.615 3.75142C151.027 3.75142 151.377 3.88873 151.666 4.16335C151.959 4.43324 152.106 4.76231 152.106 5.15057C152.106 5.53409 151.959 5.86316 151.666 6.13778C151.377 6.40767 151.027 6.54261 150.615 6.54261ZM157.108 12.608V19H154.537V8.09091H156.994V9.9446H157.122C157.373 9.33381 157.773 8.84848 158.322 8.48864C158.876 8.12879 159.561 7.94886 160.375 7.94886C161.128 7.94886 161.784 8.10985 162.342 8.43182C162.906 8.75379 163.341 9.22017 163.649 9.83097C163.962 10.4418 164.115 11.1828 164.111 12.054V19H161.54V12.4517C161.54 11.7225 161.35 11.152 160.972 10.7401C160.597 10.3281 160.079 10.1222 159.416 10.1222C158.966 10.1222 158.566 10.2216 158.216 10.4205C157.87 10.6146 157.598 10.8963 157.399 11.2656C157.205 11.6349 157.108 12.0824 157.108 12.608Z" fill="black"/>
</svg>
